<?xml version="1.0" encoding="UTF-8"?>
<svg xmlns="http://www.w3.org/2000/svg" width="168" height="45" viewBox="0 0 168 45" fill="none">
  <path d="M5.695 34.779c-1.355 2.05-2.456 3.739-3.108 4.63-.13.181-.326.275-.616.29-.174.007-.804.014-1.03.014-.535 0-.941-.036-.941-.036s8.065-11.615 8.615-12.412c.55-.79 1.34-1.753 1.34-2.319.175-.058 1.566-.485 2.464-.485.283 0 .391.181.428.399.449 2.927 2.159 12.477 2.673 14.831 0 0-.528.037-1.08.037-.5 0-1.043-.022-1.231-.051-.312-.044-.457-.123-.558-.71a509.53 509.53 0 01-.71-4.188H5.695zm5.992-1.529c-.166-1.268-.739-5.434-.884-6.231a1523.648 1523.648 0 01-4.159 6.231h5.043zm11.753-5.066c1.529 0 2.5.644 2.818.963 1.145-.014 2.457-.116 3.109-.232-.116 1.544-.92 1.776-2.181 1.84.022.117.058.4.058.718 0 2.297-2.181 4.84-5.26 4.84-.689 0-1.182-.13-1.348-.18-.196.159-.638.456-.812.6-.13.11-.319.232-.319.406 0 .297.348.5 1.355.536 1.247.051 2.225.015 3.167.102 1.876.167 2.63.942 2.63 2.108 0 2.45-2.485 5.116-7.021 5.116-2.746 0-4.145-1.123-4.145-2.572 0-1.573 1.674-2.522 3.058-3.196-1.167-.463-1.522-1.456-1.45-2.123.725-.376 1.761-1.043 2.32-1.543-.551-.391-1.247-1.239-1.247-2.522 0-2.296 2.174-4.847 5.26-4.847l.008-.014zm-5.594 13.73c0 .993.95 1.435 2.587 1.435 2.652 0 3.949-1.529 3.949-2.478 0-.855-.819-1.174-2.855-1.174-.79 0-1.478-.014-1.935.196-.695.319-1.739.992-1.739 2.021h-.007zm5.434-12.252c-1.76 0-2.862 1.92-2.862 3.456 0 1.087.667 1.71 1.71 1.71 1.928 0 2.877-2.152 2.877-3.47-.007-1-.594-1.696-1.725-1.696zm33.795-1.228c.304 0 .514.108.558.384.195 1.311.862 6.057 1.108 7.73 1.522-2.289 3.486-6.013 4.435-8.056.246 0 .906.05 1.507.239.196.065.297.166.297.333 0 .123-.065.268-.16.471-.717 1.536-3.064 6.086-6.223 10.195-2.986 3.876-4.645 5.086-5.681 5.086-.928 0-1.333-.514-1.413-.695 1-.573 3.08-2.181 5.326-5.16-.413-2.745-1.08-7.897-1.623-10.31.152-.029 1-.196 1.869-.196v-.021zM30.838 31.62c.362-1.522.492-2.326.543-2.783.326-.065 1.167-.268 1.95-.268.325 0 .477.116.477.355 0 .24-.115.681-.239 1.174-.268 1.094-1.449 6.057-2.021 8.854-.08.399-.283.652-.66.71-.174.03-.818.058-1.246.058-.442 0-.76-.029-.76-.029.383-1.348 1.956-8.079 1.956-8.079v.007zm.942-5.058c.5 0 1.739-.109 2.094-.189.377-.087.42-.239.521-.536.073-.217.334-1.195.334-1.739 0-.239-.13-.391-.478-.391-.58 0-1.645.304-1.928.413-.087.746-.355 1.848-.536 2.45l-.007-.008zm10.659 5.058c.362-1.522.492-2.326.543-2.783.326-.065 1.167-.268 1.95-.268.325 0 .477.116.477.355 0 .24-.115.681-.239 1.174-.268 1.094-1.449 6.057-2.021 8.854-.08.399-.283.652-.66.71-.173.03-.818.058-1.246.058a9.34 9.34 0 01-.76-.029c.383-1.348 1.956-8.079 1.956-8.079v.007zm.942-5.058c.5 0 1.739-.109 2.087-.189.376-.087.427-.239.521-.536.073-.217.334-1.195.334-1.739 0-.239-.13-.391-.479-.391-.58 0-1.645.304-1.927.413-.087.746-.355 1.848-.536 2.45v-.008zm8.209 2.178h-.435c.464-1.986.703-2.667.812-2.986-1.196 0-2.471.485-2.826 2.036-.051.225-.167.681-.225.95-1.116 0-1.775.622-2 1.448.218.03.957.08 1.515.08h.116s-1.29 5.239-1.479 6.355c-.065.398-.173.89-.173 1.347 0 1.196.79 1.957 2.449 1.957 2.224 0 3.108-1.63 3.108-2.536-.232.13-1.188.76-2.217.76-.746 0-1.007-.333-1.007-.826 0-.137.036-.398.108-.724.232-1.044 1.21-5.268 1.464-6.319h.681c2.181 0 2.906-.644 3.108-1.666-.224.022-.876.138-2.992.138l-.007-.015zm-13.615-2.931c.283-1.102.457-2.275.493-2.681.224-.094 1.37-.413 1.927-.413.32 0 .478.16.478.42 0 .319-.094.775-.195 1.196-.102.42-2.804 11.955-2.804 11.955a74.169 74.169 0 00-.71 3.391s-.515.05-1.181.05c-.399 0-.797-.014-.957-.028-.21-.015-.326-.08-.268-.34l3.21-13.558.007.008z" fill="#fff"></path>
  <path d="M48.438 15.095c.087-.783.392-2.551 1.312-3.196a.476.476 0 01.174-.08c1.13-.297 8.275-1.13 10.477-1.89 1.92-.667 3.638-.993 5.37-1.225C70.878 5.29 74.645 2.27 79.826.03a.315.315 0 01.304.55c-3.39 2.326-5.463 4.543-6.984 6.311a1.338 1.338 0 01-.537.377c-1.188.457-3.782 1.486-4.347 1.862a.159.159 0 00-.058.203c.029.058.109.109.188.087 5.384-1.536 17.723-6.123 27.07-7.81.276-.052.573.1.638.405a.552.552 0 01-.377.66c-7.079 1.97-13.977 7.412-16.614 9.433-.232.174-.24.42-.181.616.065.225.333.363.507.377 11.861.696 25.302-7.804 39.612-.652.254.13.384.427.283.717-.094.268-.384.413-.667.37-12.991-2.116-23.07 11.028-36.59 9.354-5.399-.667-8.297-3.376-10.906-5.941a.202.202 0 00-.275-.008c-.087.073-.087.196-.05.247 1.608 2.412 7.317 9.013 17.73 9.013 16.556 0 37.243-14.55 58.314-14.556h.029c11.288 0 18.396 6.137 20.237 7.876a.535.535 0 01.072.71.517.517 0 01-.724.094c-4.978-3.703-13.825-2.956-18.578-2.304-16.854 2.326-30.512 16.397-50.025 16.397-14.1 0-23.694-8.825-27.889-13.455-1.529-1.681-3.087-3.174-4.434-3.515-.051-.014-.124 0-.16.058-.043.073 0 .16.044.189 1.166.594 1.847 1.311 2.188 2.007.493 1.007.674 2.507.71 2.797.014.13-.007.26-.167.355-.159.094-.311.043-.413-.044-3.71-3.072-9.644-4.42-14.868-4.253a.672.672 0 01-.406-.123l-3.782-2.76a.65.65 0 01-.26-.602l-.023.022zm9.956-1.935c1.681-.014 2.956.406 4.13.667 1.123.246 2.145.34 3.326-.232-.543-.566-1.76-2.174-4.108-1.899-1.138.13-2.544.754-3.355 1.471l.007-.007z" fill="url(#paint0_linear_2623_30532)"></path>
  <defs>
    <linearGradient id="paint0_linear_2623_30532" x1="113.976" y1=".429" x2="97.985" y2="44.353" gradientUnits="userSpaceOnUse">
      <stop offset=".09" stop-color="#FDB901"></stop>
      <stop offset=".23" stop-color="#FDB300"></stop>
      <stop offset=".4" stop-color="#FDA400"></stop>
      <stop offset=".59" stop-color="#FD8A00"></stop>
      <stop offset=".8" stop-color="#FD6700"></stop>
      <stop offset=".81" stop-color="#FD6500"></stop>
      <stop offset=".87" stop-color="#FB6000"></stop>
      <stop offset=".92" stop-color="#F85400"></stop>
      <stop offset=".98" stop-color="#F24100"></stop>
      <stop offset="1" stop-color="#F03700"></stop>
    </linearGradient>
  </defs>
</svg>
