<svg width="154" height="36" viewBox="0 0 154 36" fill="none" xmlns="http://www.w3.org/2000/svg">
<path d="M84.0694 21.9928V30.0396H81.3628V9.48877H88.9277C91.1757 9.48877 92.931 10.0615 94.205 11.2127C95.4791 12.3582 96.1132 13.8779 96.1132 15.772C96.1132 17.7681 95.4904 19.3049 94.2447 20.3767C92.9989 21.4541 91.2153 21.9928 88.8937 21.9928H84.0581H84.0694ZM84.0694 19.7755H88.9334C90.3829 19.7755 91.4871 19.4353 92.2572 18.7491C93.0272 18.0686 93.4123 17.0763 93.4123 15.789C93.4123 14.5017 93.0272 13.5831 92.2572 12.8515C91.4871 12.1143 90.4282 11.7344 89.0863 11.706H84.0694V19.7812V19.7755Z" fill="#221F1F"/>
<path d="M106.532 17.1106C106.136 17.0425 105.711 17.0142 105.247 17.0142C103.537 17.0142 102.376 17.7457 101.764 19.2031V30.0399H99.1597V14.7685H101.696L101.736 16.5321C102.591 15.1711 103.803 14.485 105.371 14.485C105.881 14.485 106.266 14.553 106.526 14.6835V17.1106H106.532Z" fill="#221F1F"/>
<path d="M108.943 10.7139C108.943 10.2886 109.073 9.9313 109.328 9.64209C109.583 9.35288 109.968 9.20544 110.478 9.20544C110.987 9.20544 111.372 9.35288 111.633 9.64209C111.893 9.9313 112.029 10.2886 112.029 10.7139C112.029 11.1392 111.899 11.4908 111.633 11.7743C111.372 12.0578 110.987 12.1996 110.478 12.1996C109.968 12.1996 109.589 12.0578 109.328 11.7743C109.068 11.4908 108.943 11.1392 108.943 10.7139ZM111.757 30.0342H109.153V14.7628H111.757V30.0342Z" fill="#221F1F"/>
<path d="M118.383 14.7685L118.451 16.4583C119.567 15.1427 121.079 14.4849 122.976 14.4849C125.11 14.4849 126.56 15.3015 127.33 16.9404C127.839 16.2088 128.496 15.6134 129.312 15.1597C130.121 14.7118 131.084 14.4792 132.194 14.4792C135.54 14.4792 137.239 16.2542 137.296 19.7984V30.0285H134.691V19.9515C134.691 18.8571 134.442 18.0462 133.944 17.5018C133.445 16.963 132.607 16.6908 131.435 16.6908C130.467 16.6908 129.663 16.9801 129.023 17.5585C128.383 18.1369 128.015 18.9138 127.907 19.8948V30.0285H125.286V20.0196C125.286 17.7966 124.199 16.6908 122.03 16.6908C120.32 16.6908 119.148 17.4167 118.519 18.8798V30.0285H115.915V14.7571H118.383V14.7685Z" fill="#221F1F"/>
<path d="M147.555 30.3178C145.488 30.3178 143.807 29.6373 142.51 28.2764C141.213 26.9154 140.568 25.1007 140.568 22.8211V22.3391C140.568 20.825 140.856 19.4753 141.434 18.2845C142.012 17.0936 142.821 16.1636 143.857 15.4888C144.894 14.8196 146.02 14.4794 147.232 14.4794C149.214 14.4794 150.754 15.1315 151.853 16.4415C152.951 17.7514 153.5 19.6228 153.5 22.0612V23.15H143.172C143.212 24.6527 143.648 25.872 144.492 26.7963C145.33 27.7206 146.4 28.1856 147.697 28.1856C148.62 28.1856 149.395 27.9985 150.035 27.6242C150.675 27.2499 151.236 26.7509 151.711 26.1271L153.302 27.369C152.023 29.3368 150.109 30.3178 147.555 30.3178ZM147.232 16.6286C146.179 16.6286 145.296 17.0142 144.582 17.7798C143.869 18.5453 143.427 19.6228 143.257 21.0064H150.896V20.808C150.822 19.481 150.465 18.4546 149.826 17.7231C149.186 16.9915 148.319 16.6286 147.232 16.6286Z" fill="#221F1F"/>
<path d="M5.45362 3.81819C5.81601 4.16411 6.46718 5.06576 7.3675 4.68582C8.30745 4.27185 13.0355 3.81819 14.587 3.60837C16.1385 3.43258 17.4748 3.6424 17.4748 3.6424C17.4748 3.6424 13.3583 9.06366 12.7071 9.96531C12.022 10.8329 8.51696 15.6985 7.83181 16.7022C7.14667 17.7456 5.52157 20.4506 4.76281 21.7719C4.03803 23.0931 5.26676 23.0194 5.26676 23.0194C5.26676 23.0194 8.08096 23.0875 8.69815 23.0875C9.27571 23.0534 9.3833 22.6735 9.45691 22.4637C9.56449 22.2539 9.77966 21.6981 10.2893 20.8305C10.7932 19.9629 11.988 18.0178 13.3243 15.8969C14.6606 13.7761 16.1781 11.7289 17.3672 10.1298C18.5563 8.5306 19.9662 6.69327 20.289 6.27364C20.6118 5.85967 21.9481 4.11874 22.2369 3.7388C22.5256 3.32484 22.6332 3.35886 23.1372 3.32484C23.6411 3.29081 26.9989 3.53465 28.3749 3.63673C29.7848 3.7388 31.8062 3.81252 33.069 3.9146C34.3317 4.01667 33.9693 3.35886 33.9693 3.35886C33.9693 3.35886 34.0429 2.55928 33.6805 1.69165C33.2841 0.790001 32.9557 0.926099 32.9557 0.926099C31.1494 0.404389 24.3999 0.0584717 22.486 0.0584717H21.8915C19.3491 0.0924963 13.0808 0.449755 11.6935 0.580183C10.176 0.716281 5.37435 1.54988 4.50801 1.7597C3.64167 1.96952 4.14562 2.49123 4.14562 2.49123C4.14562 2.49123 5.04593 3.42691 5.44796 3.81252L5.45362 3.81819Z" fill="#221F1F"/>
<path d="M71.6351 14.5531C71.6351 14.5531 71.2387 14.3433 69.6136 13.9974C67.9546 13.6174 67.5922 14.4851 67.5922 14.4851C67.5922 14.4851 65.3159 16.5322 63.9116 17.8195C62.5017 19.067 60.8766 20.1105 59.7611 20.7002C58.6796 21.324 57.5585 21.7096 57.1281 21.4317C56.6921 21.1879 57.1281 20.5301 57.4509 19.9744C57.7736 19.3846 59.5063 17.4735 59.9423 16.9518C60.3783 16.4301 62.3998 14.349 63.2661 13.5153C64.0985 12.6477 62.615 12.3699 61.9298 12.1941C61.2447 12.0523 60.8087 11.9502 60.1235 11.9502C59.4384 11.9502 59.1836 12.4379 59.1836 12.4379C59.1836 12.4379 57.9945 13.6514 57.6321 14.0711C57.3093 14.5247 54.0195 18.0293 52.972 19.0727C51.9244 20.1502 50.4805 21.1936 50.0445 21.3297C49.6085 21.4714 48.7422 21.6756 48.0231 20.808C47.2983 19.9744 47.9155 19.3846 48.8554 18.0973C49.8293 16.8498 52.3604 14.0314 53.5835 12.6817C54.8462 11.3264 59.5063 7.6461 60.4066 6.98829C61.3069 6.33048 60.769 6.12066 60.769 6.12066C60.769 6.12066 59.9367 5.59895 59.4667 5.42316C58.9967 5.21334 58.238 5.07724 57.4792 5.07724C56.7204 5.07724 56.3977 5.5309 56.3977 5.5309C56.3977 5.5309 53.7987 7.61208 53.2947 8.06574C52.7908 8.47971 47.1567 13.8329 46.1432 14.8707C45.0956 15.9141 42.1738 18.4489 41.1603 19.2825C40.1467 20.0821 39.2124 20.4961 38.6688 20.1161C38.1252 19.7702 38.3064 19.1805 38.6688 18.6587C38.9916 18.137 41.2339 15.4661 42.0266 14.5588C42.8193 13.6571 45.2768 11.1903 46.1432 10.3227C46.9755 9.45508 50.3673 6.60835 51.3412 5.80877C52.3548 5.00919 51.0864 4.52151 51.0864 4.52151C51.0864 4.52151 50.3616 4.10754 49.1725 3.8637C47.9834 3.61985 47.7286 3.93175 47.0774 4.35138C46.3923 4.76535 41.9134 9.28496 41.4434 9.76697C40.9734 10.2206 35.5602 15.5001 34.7278 16.3337C33.8615 17.1333 31.0813 19.5264 30.5377 19.878C30.0337 20.2579 28.4426 21.3353 28.0123 20.6775C27.5423 20.0197 28.5162 19.43 28.5162 19.43C28.5162 19.43 30.9341 17.173 31.7664 16.2373C32.6328 15.3016 32.1288 13.9123 31.9816 13.5607C31.8004 13.1808 31.1492 12.1374 29.9601 11.2017C28.771 10.266 27.5423 10.1923 26.7099 10.232C25.8436 10.3 24.5809 11.0656 23.7485 11.4455C22.9161 11.8595 20.4983 13.6344 20.4983 13.6344C20.4983 13.6344 18.5505 15.3016 17.4293 16.4471C16.3478 17.5586 15.4418 18.5283 16.6706 20.791C17.8993 23.0819 20.1359 23.6037 21.0419 23.7114C21.9082 23.8135 23.0634 22.9118 23.4597 22.5999C23.8561 22.254 23.9297 22.3901 24.2921 22.9458C24.6149 23.5016 25.6284 23.8815 26.5684 24.0573C27.4687 24.1991 27.8707 23.9893 29.4958 23.5356C31.0869 23.0819 34.0823 21.3127 34.6599 20.9327C35.2374 20.5188 35.2714 21.1425 35.781 22.0102C36.285 22.8778 37.4797 23.1897 38.5273 23.2974C39.6088 23.3655 40.1184 23.1216 40.8035 22.8097C41.4887 22.4979 43.329 21.6302 43.8725 21.2446C44.4161 20.8987 44.5237 20.8647 44.7389 21.4204C44.9541 21.9421 44.9937 22.3901 46.6528 23.5016C48.2779 24.6131 51.0241 23.9893 51.6356 23.7794C52.2868 23.5696 53.4759 22.9799 53.7647 22.8041C54.0535 22.6283 54.3083 23.116 54.9538 23.7397C55.5653 24.3295 56.8337 24.2955 57.6264 23.8078C58.4192 23.2861 58.0228 23.8758 58.0228 23.8758C58.0228 23.8758 56.7601 25.4807 56.3977 25.957C55.7465 26.8133 54.8122 28.1686 53.8326 29.5353C53.3513 30.2101 51.8112 32.9718 51.4148 33.6352C51.0524 34.3271 51.1996 34.2931 51.8508 34.6049C52.4623 34.9509 54.1271 35.0586 54.5234 35.0586C54.8858 35.0586 55.0274 34.6446 55.0274 34.6446C55.0274 34.6446 57.0772 31.7072 57.734 30.6864C58.6966 29.195 60.5425 27.1989 60.5425 27.1989C60.9049 26.6999 62.0431 25.441 62.3885 25.0213C62.966 24.3635 66.2502 20.9951 67.3374 19.9857C68.4189 18.9423 71.2387 16.4415 72.0654 15.6759C72.8978 14.9104 71.6294 14.5644 71.6294 14.5644L71.6351 14.5531ZM25.3113 18.1994C24.3374 18.8572 21.7724 20.5981 21.1212 20.7683C20.5096 20.9441 20.1076 21.1482 19.7113 20.6322C19.3149 20.1105 20.47 19.1067 20.47 19.1067C20.47 19.1067 22.5991 17.2297 23.4314 16.5719C24.2978 15.9141 26.608 14.1391 27.112 13.8953C27.6159 13.6514 27.9783 13.4076 28.4483 13.8272C28.9183 14.2809 28.5219 14.6949 28.3747 14.9047C28.2671 15.1145 26.2456 17.5416 25.3057 18.2051L25.3113 18.1994Z" fill="#221F1F"/>
<path d="M72.8969 30.3177C72.5741 30.1816 68.7464 28.8603 67.5913 28.5824C66.4361 28.2705 61.5608 27.2952 60.9097 27.2271C60.4623 27.1817 56.7592 26.6317 55.7852 26.5636C55.0095 26.5069 53.9393 26.4332 51.9915 26.2914C50.0436 26.1553 45.4571 25.9455 42.1729 25.9115C38.8491 25.8775 30.0441 26.3651 26.794 26.5353C23.5098 26.7111 15.7467 27.8566 13.2552 28.2025C10.7638 28.5824 2.78555 30.1816 1.12647 30.7033C-0.498624 31.191 1.41525 31.9565 2.60435 32.5066C3.79345 33.0623 5.02218 32.7504 5.02218 32.7504C5.02218 32.7504 7.44 32.3308 8.66874 32.0926C9.89747 31.8488 18.8836 30.5275 21.1259 30.1816C23.3626 29.8016 31.8504 29.0361 34.1607 28.8603C36.4709 28.7185 42.9317 28.7185 44.7776 28.6845C46.6179 28.6505 52.8295 28.9964 53.1522 29.0304C56.6289 29.4274 58.7863 29.864 58.7863 29.864C58.7863 29.864 61.9629 30.4197 63.3332 30.6976C64.7431 30.9415 69.9072 32.2627 71.0226 32.7107C72.1438 33.1644 72.6477 33.1644 72.9365 33.0567C73.2253 32.9149 73.9104 31.4235 73.9104 31.4235C74.018 30.6919 73.1857 30.4878 72.8969 30.312V30.3177Z" fill="#149EC2"/>
</svg>
